<svg id="Layer_1" xmlns="http://www.w3.org/2000/svg" viewBox="172.00208 240.56834 170.00208 30.86319"><style>.st0{fill:#111111;} .st1{fill:#C01820;}</style><path class="st0" d="M231.778 247.945H218.55v3.458h4.605v11.974h4.02v-11.974h4.603v-3.458zm1.12 15.432h12.512v-3.458h-8.493v-2.94h7.564v-3.113h-7.563v-2.702h8.277v-3.22h-12.297v15.432zm26.843-9.832c-.103-3.567-3.567-5.6-6.76-5.6-4.482 0-7.385 3.422-7.385 7.716 0 4.294 2.903 7.717 7.384 7.717 3.753 0 6.553-2.24 6.76-6.057h-3.857c-.146 1.7-1.183 2.738-2.987 2.738-2.49 0-3.443-2.198-3.443-4.397s.954-4.396 3.443-4.396c1.618 0 2.78.788 2.987 2.28h3.858zm1.16 9.832h4.02v-6.355h5.294v6.355h4.02v-15.432h-4.02v5.62h-5.295v-5.62h-4.02v15.432zm15.25 0h1.47v-15.432h-1.47v15.432zm3.407 0h1.47v-13.055h.043l8.99 13.055h1.644v-15.432h-1.47V261h-.043l-8.99-13.055h-1.643v15.432zm13.368 0h4.127l.973-2.767h5.38l.952 2.767h4.194l-5.77-15.432h-4.085l-5.77 15.432zm7.78-11.153h.043l1.708 5.403h-3.502l1.75-5.403zm7.042 5.863c.02 3.796 3.028 5.29 6.43 5.29 3.256 0 6.45-1.203 6.45-4.958 0-2.676-2.157-3.672-4.293-4.273-2.157-.602-4.294-.81-4.294-1.95 0-.975 1.038-1.265 1.867-1.265 1.183 0 2.448.435 2.386 1.784h3.857c-.02-3.34-2.986-4.77-5.932-4.77-2.78 0-6.035 1.264-6.035 4.5 0 2.717 2.22 3.67 4.335 4.273 2.136.6 4.252.85 4.252 2.156 0 1.1-1.204 1.514-2.365 1.514-1.64 0-2.717-.56-2.8-2.303h-3.858zm13.762 5.29h4.02v-15.432h-4.02v15.432zm4.868 0h4.128l.972-2.767h5.382l.95 2.767h4.194l-5.77-15.432h-4.086l-5.77 15.432zm7.78-11.153h.044l1.707 5.403h-3.502l1.75-5.403z"/><path id="SVGID_1_" class="st1" d="M201.355 252.11l1.905 1.1c.36.208.763-.195.555-.554l-1.928-3.34c-.157-.27-.548-.27-.704 0l-12.534 21.71c-.314.54-1.095.54-1.408 0l-4.12-7.187c-.143-.248-.19-.528-.19-.813v-6.262c0-.48-.24-.936-.608-1.244l-10.026-8.39c-.58-.488-.25-1.425.508-1.425h16.986c.285 0 .565.065.812.208l4.22 2.43c.193.113.26.36.148.553l-1.854 3.21c-.113.195-.36.26-.555.15l-3.174-1.802c-.248-.142-.528-.185-.813-.185H184c-.38 0-.553.44-.262.683l3 2.534c.368.31.54.748.54 1.23v8.095c0 .415.59.563.798.203l12.744-22.04c.313-.542 1.104-.542 1.417 0l13.1 22.68c.415.72-.388 1.525-1.108 1.11l-15.136-8.74c-.194-.112-.26-.36-.148-.554l1.854-3.21c.112-.195.36-.262.555-.15z"/></svg>