<?xml version="1.0" encoding="UTF-8" standalone="no"?>
<svg
   xmlns:dc="http://purl.org/dc/elements/1.1/"
   xmlns:cc="http://creativecommons.org/ns#"
   xmlns:rdf="http://www.w3.org/1999/02/22-rdf-syntax-ns#"
   xmlns:svg="http://www.w3.org/2000/svg"
   xmlns="http://www.w3.org/2000/svg"
   version="1.1"
   id="svg8578"
   viewBox="0 0 196.42991 102.55552"
   height="102.55551"
   width="196.4299">
  <defs
     id="defs8580">
    <radialGradient
       fx="0"
       fy="0"
       cx="0"
       cy="0"
       r="1"
       gradientUnits="userSpaceOnUse"
       gradientTransform="matrix(48.23683,0,0,-60.39252,74.80518,731.87402)"
       spreadMethod="pad"
       id="radialGradient8692-9">
      <stop
         style="stop-opacity:1;stop-color:#90dbf7"
         offset="0"
         id="stop8694-6" />
      <stop
         style="stop-opacity:1;stop-color:#90dbf7"
         offset="0.05712103"
         id="stop8696-5" />
      <stop
         style="stop-opacity:1;stop-color:#53b4e9"
         offset="0.36545"
         id="stop8698-3" />
      <stop
         style="stop-opacity:1;stop-color:#53b4e9"
         offset="0.45386138"
         id="stop8700-1" />
      <stop
         style="stop-opacity:1;stop-color:#2f5fb4"
         offset="0.93109"
         id="stop8702-9" />
      <stop
         style="stop-opacity:1;stop-color:#2f5fb4"
         offset="0.9993"
         id="stop8704-1" />
      <stop
         style="stop-opacity:1;stop-color:#2f5fb4"
         offset="1"
         id="stop8706-9" />
    </radialGradient>
    <linearGradient
       x1="0"
       y1="0"
       x2="1"
       y2="0"
       gradientUnits="userSpaceOnUse"
       gradientTransform="matrix(0,-50.16093,-50.16093,0,95.1333,809.45654)"
       spreadMethod="pad"
       id="linearGradient8666-0">
      <stop
         style="stop-opacity:1;stop-color:#53b4e9"
         offset="0"
         id="stop8668-6" />
      <stop
         style="stop-opacity:1;stop-color:#53b4e9"
         offset="0.14917353"
         id="stop8670-7" />
      <stop
         style="stop-opacity:1;stop-color:#2a449a"
         offset="0.71222"
         id="stop8672-7" />
      <stop
         style="stop-opacity:1;stop-color:#2a449a"
         offset="0.77249514"
         id="stop8674-5" />
      <stop
         style="stop-opacity:1;stop-color:#303791"
         offset="1"
         id="stop8676-7" />
    </linearGradient>
    <linearGradient
       x1="0"
       y1="0"
       x2="1"
       y2="0"
       gradientUnits="userSpaceOnUse"
       gradientTransform="matrix(-28.61588,61.36694,61.36694,28.61589,86.0166,740.55762)"
       spreadMethod="pad"
       id="linearGradient8640-7">
      <stop
         style="stop-opacity:1;stop-color:#90dbf7"
         offset="0"
         id="stop8642-5" />
      <stop
         style="stop-opacity:1;stop-color:#90dbf7"
         offset="0.17630838"
         id="stop8644-6" />
      <stop
         style="stop-opacity:1;stop-color:#53b4e9"
         offset="0.3783"
         id="stop8646-8" />
      <stop
         style="stop-opacity:1;stop-color:#53b4e9"
         offset="0.66804248"
         id="stop8648-7" />
      <stop
         style="stop-opacity:1;stop-color:#303791"
         offset="1"
         id="stop8650-1" />
    </linearGradient>
    <linearGradient
       x1="0"
       y1="0"
       x2="1"
       y2="0"
       gradientUnits="userSpaceOnUse"
       gradientTransform="matrix(34.84424,0,0,-34.84424,59.68701,796.54492)"
       spreadMethod="pad"
       id="linearGradient8616-6">
      <stop
         style="stop-opacity:1;stop-color:#53b4e9"
         offset="0"
         id="stop8618-7" />
      <stop
         style="stop-opacity:1;stop-color:#53b4e9"
         offset="0.09015"
         id="stop8620-9" />
      <stop
         style="stop-opacity:1;stop-color:#53b4e9"
         offset="0.28071687"
         id="stop8622-9" />
      <stop
         style="stop-opacity:1;stop-color:#303791"
         offset="1"
         id="stop8624-3" />
    </linearGradient>
  </defs>
  <metadata
     id="metadata8583">
    <rdf:RDF>
      <cc:Work
         rdf:about="">
        <dc:format>image/svg+xml</dc:format>
        <dc:type
           rdf:resource="http://purl.org/dc/dcmitype/StillImage" />
        <dc:title></dc:title>
      </cc:Work>
    </rdf:RDF>
  </metadata>
  <g
     transform="translate(-264.64218,-183.9416)"
     id="layer1">
    <g
       transform="matrix(1.25,0,0,-1.25,205.45898,1197.8916)"
       id="g8604">
      <g
         id="g8606">
        <g
           id="g8612">
          <g
             id="g8614">
            <path
               id="path8626"
               style="fill:url(#linearGradient8616-6);stroke:none"
               d="m 59.687,782.779 c 2.209,15.785 19.067,22.693 28.088,19.236 l 0,0 c 2.302,-0.881 4.18,-2.736 3.709,-5.558 l 0,0 c -0.153,-0.912 -0.659,-1.836 -1.315,-2.801 l 0,0 c 0,0 9.77,12.006 0.067,15.478 l 0,0 c -2.256,0.808 -4.445,1.177 -6.545,1.177 l 0,0 C 70.217,810.312 60.389,795.098 59.687,782.779" />
          </g>
        </g>
      </g>
    </g>
    <g
       transform="matrix(1.25,0,0,-1.25,205.45898,1197.8916)"
       id="g8628">
      <g
         id="g8630">
        <g
           id="g8636">
          <g
             id="g8638">
            <path
               id="path8652"
               style="fill:url(#linearGradient8640-7);stroke:none"
               d="m 80.328,810.266 c -3.85,-0.315 -14.004,-2.307 -21.889,-9.782 l 0,0 C 50.23,792.705 48.047,781.303 48.15,768.864 l 0,0 c 0.257,-30.08 14.004,-35.027 19.988,-36.512 l 0,0 c 0.045,-0.008 0.09,-0.021 0.139,-0.021 l 0,0 c 0.238,0 0.43,0.192 0.43,0.43 l 0,0 c 0,0.179 -0.113,0.32 -0.262,0.397 l 0,0 c -10.332,5.386 -9.037,33.363 -9.037,44.293 l 0,0 c 0,1.882 0.099,3.654 0.279,5.328 l 0,0 c 0.721,12.627 11.03,28.293 25.024,27.5 l 0,0 c -0.672,0.053 -1.363,0.081 -2.072,0.081 l 0,0 c -0.749,0 -1.519,-0.031 -2.311,-0.094" />
          </g>
        </g>
      </g>
    </g>
    <g
       transform="matrix(1.25,0,0,-1.25,205.45898,1197.8916)"
       id="g8654">
      <g
         id="g8656">
        <g
           id="g8662">
          <g
             id="g8664">
            <path
               id="path8678"
               style="fill:url(#linearGradient8666-0);stroke:none"
               d="m 90.169,793.656 c 0.042,0.057 0.077,0.116 0.114,0.175 l 0,0 c -2.922,-4.19 -9.643,-9.87 -8.297,-15.651 l 0,0 c 2.199,-9.486 16.49,-5.046 26.47,-15.719 l 0,0 c -1.283,1.534 -2.312,2.518 -2.914,3.063 l 0,0 c -8.421,7.588 -13.378,9.818 -13.689,14.312 l 0,0 c -0.23,3.33 2.317,5.241 5.233,9.57 l 0,0 c 5.148,7.647 2.08,15.936 -5.938,19.346 l 0,0 c 8.138,-3.89 -0.979,-15.096 -0.979,-15.096" />
          </g>
        </g>
      </g>
    </g>
    <g
       transform="matrix(1.25,0,0,-1.25,205.45898,1197.8916)"
       id="g8680">
      <g
         id="g8682">
        <g
           id="g8688">
          <g
             id="g8690">
            <path
               id="path8708"
               style="fill:url(#radialGradient8692-9);stroke:none"
               d="m 95.654,761.616 c 9.021,-6.803 10.422,-27.877 -22.457,-29.289 l 0,0 c -0.2,-0.002 -0.475,-0.034 -0.743,-0.052 l 0,0 c -0.45,-0.03 -0.579,-0.728 -0.011,-0.87 l 0,0 c 8.639,-2.147 25.961,-3.195 35.317,5.647 l 0,0 c 6.827,6.453 7.589,17.03 0.499,25.61 l 0,0 c -9.968,10.407 -24.087,6.095 -26.273,15.518 l 0,0 c -0.081,0.34 -0.126,0.678 -0.153,1.018 l 0,0 C 82,771.033 87.286,767.922 95.654,761.616" />
          </g>
        </g>
      </g>
    </g>
    <g
       transform="matrix(1.25,0,0,-1.25,372.64348,238.28159)"
       id="g8718">
      <path
         id="path8720"
         style="fill:#2c2f73;fill-opacity:1;fill-rule:nonzero;stroke:none"
         d="m 0,0 c 2.381,0 3.828,0.935 3.828,2.721 l 0,0.056 c 0,1.675 -1.332,2.666 -4.084,2.666 l -5.527,0 L -5.783,0 0,0 Z m -1.02,8.392 c 2.239,0 3.741,0.878 3.741,2.691 l 0,0.059 c 0,1.558 -1.248,2.523 -3.487,2.523 l -5.017,0 0,-5.273 4.763,0 z m -8.195,6.605 c 0,0.992 0.766,1.759 1.756,1.759 l 7.146,0 c 2.268,0 4.055,-0.625 5.19,-1.759 0.879,-0.88 1.332,-1.956 1.332,-3.288 l 0,-0.058 C 6.209,9.27 4.848,7.995 3.373,7.229 5.699,6.436 7.314,5.103 7.314,2.41 l 0,-0.057 c 0,-3.544 -2.921,-5.443 -7.343,-5.443 l -7.43,0 c -0.99,0 -1.756,0.764 -1.756,1.756 l 0,16.331 z" />
    </g>
    <g
       transform="matrix(1.25,0,0,-1.25,384.57698,226.02696)"
       id="g8722">
      <path
         id="path8724"
         style="fill:#2c2f73;fill-opacity:1;fill-rule:nonzero;stroke:none"
         d="M 0,0 C 0,0.899 0.711,1.663 1.637,1.663 2.535,1.663 3.299,0.926 3.299,0 l 0,-11.396 c 0,-0.926 -0.736,-1.635 -1.662,-1.635 -0.901,0 -1.637,0.709 -1.637,1.635 L 0,0 Z m -0.244,5.369 c 0,0.982 0.818,1.609 1.881,1.609 1.064,0 1.879,-0.627 1.879,-1.609 l 0,-0.162 c 0,-0.981 -0.815,-1.636 -1.879,-1.636 -1.063,0 -1.881,0.655 -1.881,1.636 l 0,0.162 z" />
    </g>
    <g
       transform="matrix(1.25,0,0,-1.25,391.45935,240.47522)"
       id="g8726">
      <path
         id="path8728"
         style="fill:#2c2f73;fill-opacity:1;fill-rule:nonzero;stroke:none"
         d="M 0,0 0,0.054 C 0,0.682 0.219,1.09 0.736,1.635 l 7.662,8.722 -6.816,0 c -0.734,0 -1.336,0.601 -1.336,1.336 0,0.765 0.602,1.364 1.336,1.364 l 9.516,0 c 0.898,0 1.58,-0.546 1.58,-1.308 l 0,-0.081 c 0,-0.629 -0.219,-1.037 -0.711,-1.583 l -7.686,-8.721 7.086,0 c 0.764,0 1.365,-0.6 1.365,-1.364 0,-0.737 -0.601,-1.335 -1.365,-1.335 l -9.758,0 C 0.682,-1.335 0,-0.791 0,0" />
    </g>
    <g
       transform="matrix(1.25,0,0,-1.25,409.75773,226.02696)"
       id="g8730">
      <path
         id="path8732"
         style="fill:#2c2f73;fill-opacity:1;fill-rule:nonzero;stroke:none"
         d="M 0,0 C 0,0.899 0.709,1.663 1.637,1.663 2.535,1.663 3.301,0.926 3.301,0 l 0,-0.737 c 0.926,1.363 2.262,2.533 4.498,2.533 3.242,0 5.123,-2.178 5.123,-5.532 l 0,-7.66 c 0,-0.926 -0.736,-1.635 -1.635,-1.635 -0.926,0 -1.662,0.709 -1.662,1.635 l 0,6.679 c 0,2.235 -1.119,3.516 -3.082,3.516 -1.906,0 -3.242,-1.334 -3.242,-3.57 l 0,-6.625 c 0,-0.926 -0.737,-1.635 -1.664,-1.635 -0.899,0 -1.637,0.709 -1.637,1.635 L 0,0 Z" />
    </g>
    <g
       transform="matrix(1.25,0,0,-1.25,441.51548,231.88822)"
       id="g8734">
      <path
         id="path8736"
         style="fill:#2c2f73;fill-opacity:1;fill-rule:nonzero;stroke:none"
         d="M 0,0 C -0.217,2.126 -1.471,3.789 -3.65,3.789 -5.67,3.789 -7.086,2.235 -7.387,0 L 0,0 Z m -10.658,-1.063 0,0.054 c 0,4.117 2.918,7.494 7.035,7.494 4.578,0 6.84,-3.76 6.84,-7.086 0,-0.926 -0.709,-1.58 -1.553,-1.58 l -9.023,0 c 0.353,-2.344 2.017,-3.654 4.142,-3.654 1.391,0 2.483,0.463 3.41,1.254 0.162,0.137 0.461,0.3 0.844,0.3 0.736,0 1.309,-0.599 1.309,-1.334 0,-0.411 -0.192,-0.765 -0.438,-0.984 -1.308,-1.17 -2.943,-1.932 -5.179,-1.932 -4.17,0 -7.387,3.025 -7.387,7.468" />
    </g>
    <g
       transform="matrix(1.25,0,0,-1.25,448.91048,237.17022)"
       id="g8738">
      <path
         id="path8740"
         style="fill:#2c2f73;fill-opacity:1;fill-rule:nonzero;stroke:none"
         d="m 0,0 0,7.579 -0.545,0 c -0.791,0 -1.418,0.627 -1.418,1.417 0,0.791 0.627,1.417 1.418,1.417 l 0.545,0 0,2.453 c 0,0.9 0.736,1.635 1.637,1.635 0.926,0 1.664,-0.735 1.664,-1.635 l 0,-2.453 2.588,0 c 0.789,0 1.418,-0.626 1.418,-1.417 0,-0.79 -0.629,-1.417 -1.418,-1.417 l -2.588,0 0,-7.062 c 0,-1.281 0.652,-1.797 1.771,-1.797 0.379,0 0.707,0.08 0.817,0.08 0.736,0 1.39,-0.6 1.39,-1.362 0,-0.601 -0.41,-1.091 -0.873,-1.281 C 5.699,-4.089 5.016,-4.226 4.145,-4.226 1.719,-4.226 0,-3.163 0,0" />
    </g>
    <g
       transform="matrix(1.25,0,0,-1.25,459.7796,218.88897)"
       id="g8742">
      <path
         id="path8744"
         style="fill:#2c2f73;fill-opacity:1;fill-rule:nonzero;stroke:none"
         d="M 0,0 0,0.008 C 0,0.731 -0.563,1.319 -1.307,1.319 -2.057,1.319 -2.623,0.724 -2.623,0 l 0,-0.009 c 0,-0.725 0.562,-1.31 1.307,-1.31 C -0.568,-1.319 0,-0.727 0,0 m -2.857,-0.009 0,0.009 c 0,0.841 0.681,1.544 1.55,1.544 0.868,0 1.541,-0.696 1.541,-1.536 L 0.234,0 c 0,-0.842 -0.683,-1.546 -1.55,-1.546 -0.868,0 -1.541,0.696 -1.541,1.537" />
    </g>
    <g
       transform="matrix(1.25,0,0,-1.25,458.24885,218.81084)"
       id="g8746">
      <path
         id="path8748"
         style="fill:#2c2f73;fill-opacity:1;fill-rule:nonzero;stroke:none"
         d="m 0,0 c 0.199,0 0.318,0.099 0.318,0.252 l 0,0.008 C 0.318,0.423 0.199,0.512 0,0.512 l -0.404,0 L -0.404,0 0,0 Z m -0.711,0.637 c 0,0.086 0.068,0.154 0.154,0.154 l 0.569,0 C 0.225,0.791 0.391,0.726 0.5,0.616 0.588,0.535 0.633,0.42 0.633,0.28 l 0,-0.01 c 0,-0.247 -0.139,-0.41 -0.36,-0.484 l 0.309,-0.383 c 0.025,-0.03 0.047,-0.065 0.047,-0.106 0,-0.082 -0.072,-0.151 -0.149,-0.151 -0.064,0 -0.093,0.021 -0.132,0.073 l -0.405,0.511 -0.017,0 -0.33,0 0,-0.43 c 0,-0.085 -0.071,-0.154 -0.153,-0.154 -0.086,0 -0.154,0.069 -0.154,0.154 l 0,1.337 z" />
    </g>
  </g>
</svg>
