<?xml version="1.0" ?><svg enable-background="new 0 0 500 500" id="Layer_1" version="1.1" viewBox="0 0 500 500" xml:space="preserve" xmlns="http://www.w3.org/2000/svg" xmlns:xlink="http://www.w3.org/1999/xlink"><g><path d="M433.488,481.986c0,0-14.409-79.139-19.725-117.76   c-5.316-38.622-76.879-62.917-111.723-72.953c-40.164-11.568-23.124-56.141-23.124-56.141c-8.025,5.69-23.986,11.011-38.824,11.011   s-37.28-8.98-37.28-8.98s17.526,41.372-24.667,54.11c-34.748,10.49-106.407,34.331-111.723,72.953   c-5.316,38.622-19.725,117.76-19.725,117.76H433.488z" fill="#F3F3F3" id="XMLID_2_"/><g><path d="M417.636,481.986c8.253,0,14.501-7.452,13.052-15.577    c-4.463-25.031-13.077-74.224-16.925-102.184c-5.316-38.622-76.879-62.917-111.723-72.953    c-19.822-5.709-39.979,62.201-60.385,61.979c-20.94-0.228-42.141-68.43-63.51-61.979c-34.748,10.49-106.407,34.331-111.723,72.953    c-3.848,27.96-12.462,77.153-16.925,102.184c-1.449,8.125,4.799,15.577,13.052,15.577H417.636z" fill="#2666CE" id="XMLID_1_"/><polygon fill="#FFFFFF" points="215.05,481.986 167.492,291.867 189.818,278.867 241.655,355.875   "/><polygon fill="#0B4FB2" points="84,482 84,382.426 109.87,482   "/><polygon fill="#0B4FB2" points="157.827,300.36 153.199,393.884 208.722,482 219.927,482   "/><polygon fill="#FFFFFF" points="268.445,481.986 316.004,291.867 293.678,278.867 241.84,355.875   "/><polygon fill="#0B4FB2" points="399,482 399,382.426 373.452,482   "/><polygon fill="#0B4FB2" points="325.669,300.36 330.296,393.884 274.774,482 263.568,482   "/><path d="M219.742,481.986l12.826-146.517c2.452-9.347,15.721-9.347,18.173,0l11.712,146.517H219.742z" fill="#F1BB4C"/><path d="M235.8,372.331l-15.62-15.62c-3.234-3.234-3.234-8.477,0-11.712l15.62-15.62    c3.234-3.234,8.477-3.234,11.712,0l15.62,15.62c3.234,3.234,3.234,8.477,0,11.712l-15.62,15.62    C244.277,375.565,239.034,375.565,235.8,372.331z" fill="#FECC5D"/><path d="M158.311,294.459l-5.116,49.932c-0.524,5.119,3.861,9.39,8.964,8.73l5.776-0.747    c3.347-0.433,5.155,3.801,2.528,5.919l-9.33,7.525c-2.978,2.402-3.833,6.58-2.038,9.959l55.954,106.21h19.897l-51.99-199.125    L158.311,294.459z" fill="#4384EC"/><path d="M325.184,294.459l5.116,49.932c0.525,5.119-3.861,9.39-8.964,8.73l-5.776-0.747    c-3.346-0.433-5.155,3.801-2.528,5.919l9.33,7.525c2.978,2.402,3.833,6.58,2.038,9.959l-55.954,106.21h-19.897l51.99-199.125    L325.184,294.459z" fill="#4384EC"/></g><path d="M204.573,242.574c0,0,3.978,17.682,0,25.725l17.477,12.781c13.024,9.525,31.34,6.067,40.081-7.496   c5.635-8.743,11.25-19.399,14.686-31.011C285.84,212.088,199.443,210.671,204.573,242.574z" fill="#E8E6E6"/><path d="M316.004,128.57c0,41.277-10.407,126.572-75.911,126.572   c-65.504,0-75.911-85.296-75.911-126.572c0-41.277,33.987-74.738,75.911-74.738C282.017,53.832,316.004,87.293,316.004,128.57z" fill="#F3F3F3" id="XMLID_32_"/><path d="M174.955,200.347c0,0,69.585-21.554,84.287-64.26c0,0,22.077,34.099,51.994,41.903   c0,0,14.014-66.407-21.791-84.609S137.372,88.076,174.955,200.347z" fill="#E8E6E6"/><path d="M256.544,111.028c0,0-3.899,40.463-95.246,73.064C126.761,112.839,182.485,3.636,271.71,53.832   c0,0,68.608,3.032,46.9,112.805C318.609,166.636,285.431,150.748,256.544,111.028z" fill="#2666CE"/></g></svg>