<?xml version="1.0" ?><svg enable-background="new 0 0 500 500" id="Layer_1" version="1.1" viewBox="0 0 500 500" xml:space="preserve" xmlns="http://www.w3.org/2000/svg" xmlns:xlink="http://www.w3.org/1999/xlink"><g><path d="M477.563,191.076c0-18.92-12.886-34.833-30.359-39.44c0.447-0.611,0.867-1.264,1.254-1.935   c5.839-10.113,2.374-23.072-7.74-28.911c-6.42-3.707-13.975-3.713-20.131-0.6c-3.741-23.582-23.904-41.788-48.405-42.344   c-9.657-21.868-31.538-37.075-57.002-37.075c-31.06,0-56.803,22.78-61.52,52.512c-7.642-3.865-17.02-3.9-24.991,0.701   c-12.555,7.248-16.856,23.314-9.608,35.869c0.481,0.833,1.002,1.632,1.557,2.391c-9.559,2.52-18.01,7.768-24.476,14.857   c-10.95-9.547-25.272-15.33-40.963-15.33c-31.06,0-56.803,22.78-61.52,52.512c-7.643-3.865-17.02-3.9-24.991,0.701   c-12.555,7.248-16.856,23.314-9.608,35.869c0.481,0.833,1.002,1.632,1.557,2.391C38.927,228.963,22.93,248.712,22.93,272.2   c0,27.96,22.209,50.628,50.17,50.628c1.776,0,143.9,0.185,143.9,0.185v-93.741c5,1.65,10.31,2.556,15.859,2.556   c1.008,0,48.141,0.06,87.141,0.111v0.074c0,0,12.256-0.016,28.557-0.037c7.968,0.01,14.925,0.019,19.924,0.026   c-1.079,4.195-1.595,8.592-1.595,13.124c0,29.015,23.551,52.536,52.566,52.536s52.551-23.521,52.551-52.536   c0-9.128-2.324-17.71-6.418-25.189C472.979,212.554,477.563,202.349,477.563,191.076z" fill="#F2F2F2"/><g><polygon fill="#4384EC" points="335,228 335,87 163,87 163,228 81,228 81,435 417,435 417,228   "/><g><rect fill="#FFFFFF" height="9.677" width="87.801" x="230.434" y="122.96"/><rect fill="#FFFFFF" height="9.677" width="87.801" x="230.434" y="170.376"/><rect fill="#FFFFFF" height="9.677" width="87.801" x="230.434" y="217.792"/><rect fill="#FFFFFF" height="9.677" width="87.801" x="230.434" y="265.209"/><rect fill="#FFFFFF" height="9.677" width="87.801" x="230.434" y="312.625"/><rect fill="#FFFFFF" height="9.677" width="27.782" x="184.026" y="122.96"/><rect fill="#FFFFFF" height="9.677" width="27.782" x="184.026" y="170.376"/><rect fill="#FFFFFF" height="9.677" width="27.782" x="184.026" y="217.792"/><rect fill="#FFFFFF" height="9.677" width="27.782" x="184.026" y="265.209"/><rect fill="#FFFFFF" height="9.677" width="27.782" x="184.026" y="312.625"/></g><path d="M163.576,380.958L163.576,380.958l0-152.873H148.19v137.487    C148.19,374.07,155.078,380.958,163.576,380.958z" fill="#2666CE"/><path d="M335.269,380.958L335.269,380.958l0-152.873h15.386v137.487    C350.655,374.07,343.767,380.958,335.269,380.958z" fill="#2666CE"/><g><rect fill="#FFFFFF" height="9.677" width="66.614" x="81.576" y="265.209"/><rect fill="#CAD8EF" height="9.677" width="7.693" x="148.19" y="265.209"/></g><g><rect fill="#FFFFFF" height="9.677" width="66.614" x="81.576" y="312.625"/><rect fill="#CAD8EF" height="9.677" width="7.693" x="148.19" y="312.625"/></g><g><rect fill="#FFFFFF" height="9.677" transform="matrix(-1 -6.509872e-11 6.509872e-11 -1 767.9245 540.0941)" width="66.614" x="350.655" y="265.209"/><rect fill="#CAD8EF" height="9.677" transform="matrix(-1 -4.492552e-11 4.492552e-11 -1 693.6174 540.0941)" width="7.693" x="342.962" y="265.209"/></g><g><rect fill="#FFFFFF" height="9.677" transform="matrix(-1 -6.509872e-11 6.509872e-11 -1 767.9245 634.9268)" width="66.614" x="350.655" y="312.625"/><rect fill="#CAD8EF" height="9.677" transform="matrix(-1 -4.492552e-11 4.492552e-11 -1 693.6174 634.9268)" width="7.693" x="342.962" y="312.625"/></g><rect fill="#4384EC" height="14.545" width="378.193" x="60.48" y="435.013"/><rect fill="#2666CE" height="16.716" width="416.547" x="41.302" y="449.559"/><rect fill="#2666CE" height="8.545" width="335.812" x="81.67" y="426.468"/><g><rect fill="#FFFFFF" height="46.027" width="49.671" x="229.016" y="388.987"/><rect fill="#CAD8EF" height="46.027" width="1.898" x="252.903" y="388.987"/></g></g></g></svg>