<?xml version="1.0" ?><svg enable-background="new 0 0 500 500" id="Layer_1" version="1.1" viewBox="0 0 500 500" xml:space="preserve" xmlns="http://www.w3.org/2000/svg" xmlns:xlink="http://www.w3.org/1999/xlink"><g><path d="M110.023,90.017l40.699,52.405c4.781,1.758,9.88,2.479,14.961,2.117l57.206-11.444   c15.272-3.055,30.966,2.721,40.614,14.947l34.52,43.747l39.433,64.892l28.354,28.512c15.906,17.623,16.592,35.366,4.226,50.918   l-77.738,75.7c-9.632,9.38-24.582,10.563-35.569,2.815l-152.474-98.231l-14.211-67.757l-74.301-71.476   c-9.208-8.857-9.113-23.622,0.206-32.362l61.183-57.374C86.719,78.436,101.961,79.636,110.023,90.017z" fill="#FECC5D"/><path d="M235.609,390.223l-117.738-90.318l-27.828-51.268l14.211,67.757l152.474,98.231   c7.827,5.519,17.656,6.483,26.149,3.204c0.748-14.491-3.917-35.874-3.917-35.874L235.609,390.223z" fill="#E9B142"/><path d="M365.81,285.192l-28.354-28.512l-20.792-34.217l-19.828-22.66l-66.175-20.331   c0,0-68.161,6.409-40.259,53.434l47.717-15.961l134.406,77.105C370.703,291.101,368.475,288.145,365.81,285.192z" fill="#E9B142"/><path d="M104.254,354.613c-6.296,0-12.592-2.402-17.396-7.206c-9.608-9.608-9.608-25.184,0-34.792l27.234-27.234   c9.608-9.607,25.184-9.607,34.792,0c9.608,9.608,9.608,25.184,0,34.792l-27.234,27.234   C116.846,352.211,110.55,354.613,104.254,354.613z" fill="#4384EC"/><path d="M145.268,381.955c-6.296,0-12.592-2.402-17.396-7.206c-9.608-9.608-9.608-25.184,0-34.792l27.234-27.234   c9.608-9.607,25.184-9.607,34.792,0c9.608,9.608,9.608,25.184,0,34.792l-27.234,27.234   C157.86,379.553,151.564,381.955,145.268,381.955z" fill="#4384EC"/><path d="M186.282,409.298c-6.296,0-12.592-2.402-17.396-7.206c-9.608-9.608-9.608-25.184,0-34.792l27.234-27.234   c9.608-9.607,25.184-9.607,34.792,0c9.608,9.608,9.608,25.184,0,34.792l-27.234,27.234   C198.874,406.896,192.578,409.298,186.282,409.298z" fill="#4384EC"/><path d="M227.296,436.641c-6.296,0-12.592-2.402-17.396-7.206c-9.608-9.608-9.608-25.184,0-34.792l27.234-27.234   c9.608-9.607,25.184-9.607,34.792,0c9.608,9.608,9.608,25.184,0,34.792l-27.234,27.234   C239.888,434.239,233.592,436.641,227.296,436.641z" fill="#4384EC"/><path d="M182.817,234.152c-5.897,0-11.802-2.184-16.401-6.581c-9.474-9.059-9.81-24.085-0.75-33.559l43.567-45.56   c6.885-7.202,17.534-9.334,26.664-5.343l90.331,14.411c12.01,5.251-2.509,35.587-7.761,47.599   c-5.251,12.01,6.728,28.194-5.284,22.942l-74.014-31.767c-4.265-1.83-9.217-0.82-12.425,2.534l-26.769,27.994   C195.313,231.697,189.07,234.152,182.817,234.152z" fill="#4384EC"/><path d="M285.641,172.446l95.752-96.126c7.488-7.517,19.653-7.533,27.161-0.037l77.409,77.289   c7.528,7.517,7.507,19.723-0.047,27.213L372.247,293.493l-127.61-120.979L285.641,172.446z" fill="#4384EC"/><path d="M266.839,208.169c0,0,65.257,9.017,101.278-1.609c0,0-12.492,17.915-32.678,21.447l36.808,65.485   l-77.254-73.24L266.839,208.169z" fill="#2C6CD3"/><path d="M104.254,354.613c6.296,0,12.592-2.402,17.396-7.206l27.234-27.234c7.205-7.205,9.007-17.767,5.405-26.651   l-59.29,59.29C97.96,354.012,101.107,354.613,104.254,354.613z" fill="#2C6CD3"/><path d="M145.268,381.955c6.296,0,12.592-2.402,17.396-7.206l27.234-27.234c7.231-7.231,9.018-17.843,5.364-26.747   l-59.344,59.344C138.906,381.34,142.087,381.955,145.268,381.955z" fill="#2C6CD3"/><path d="M186.282,409.298c6.296,0,12.592-2.402,17.396-7.206l27.234-27.234c7.151-7.15,8.975-17.606,5.482-26.448   l-59.164,59.164C180.132,408.721,183.207,409.298,186.282,409.298z" fill="#2C6CD3"/><path d="M277.187,375.217l-59.479,59.479c3.058,1.293,6.322,1.945,9.588,1.945c5.505,0,11.01-1.837,15.518-5.51   l30.808-30.808C279.474,393.141,280.658,383.429,277.187,375.217z" fill="#2C6CD3"/></g></svg>